HIERARCHY
ROOT Hips
{
	OFFSET 0.000000 0.000000 0.000000
	CHANNELS 6 Xposition Yposition Zposition Zrotation Yrotation Xrotation 
	JOINT LHipJoint
	{
		OFFSET 0.000000 0.000000 0.000000
		CHANNELS 3 Zrotation Yrotation Xrotation
		JOINT LeftUpLeg
		{
			OFFSET 1.363060 -1.794630 0.839290
			CHANNELS 3 Zrotation Yrotation Xrotation
			JOINT LeftLeg
			{
				OFFSET 2.448110 -6.726130 0.000000
				CHANNELS 3 Zrotation Yrotation Xrotation
				JOINT LeftFoot
				{
					OFFSET 2.562200 -7.039590 0.000000
					CHANNELS 3 Zrotation Yrotation Xrotation
					JOINT LeftToeBase
					{
						OFFSET 0.157640 -0.433110 2.322550
						CHANNELS 3 Zrotation Yrotation Xrotation
						End Site
						{
							OFFSET 0.000000 0.000000 0.000000
						}
					}
				}
			}
		}
	}
	JOINT RHipJoint
	{
		OFFSET 0.000000 0.000000 0.000000
		CHANNELS 3 Zrotation Yrotation Xrotation
		JOINT RightUpLeg
		{
			OFFSET -1.305520 -1.794630 0.839290
			CHANNELS 3 Zrotation Yrotation Xrotation
			JOINT RightLeg
			{
				OFFSET -2.542530 -6.985550 0.000000
				CHANNELS 3 Zrotation Yrotation Xrotation
				JOINT RightFoot
				{
					OFFSET -2.568260 -7.056230 0.000000
					CHANNELS 3 Zrotation Yrotation Xrotation
					JOINT RightToeBase
					{
						OFFSET -0.164730 -0.452590 2.363150
						CHANNELS 3 Zrotation Yrotation Xrotation
						End Site
						{
							OFFSET 0.000000 0.000000 0.000000
						}
					}
				}
			}
		}
	}
	JOINT LowerBack
	{
		OFFSET 0.000000 0.000000 0.000000
		CHANNELS 3 Zrotation Yrotation Xrotation
		JOINT Spine
		{
			OFFSET 0.028270 2.035590 -0.193380
			CHANNELS 3 Zrotation Yrotation Xrotation
			JOINT Spine1
			{
				OFFSET 0.056720 2.048850 -0.042750
				CHANNELS 3 Zrotation Yrotation Xrotation
				JOINT Neck
				{
					OFFSET 0.000000 0.000000 0.000000
					CHANNELS 3 Zrotation Yrotation Xrotation
					JOINT Neck1
					{
						OFFSET -0.054170 1.746240 0.172020
						CHANNELS 3 Zrotation Yrotation Xrotation
						JOINT Head
						{
							OFFSET 0.104070 1.761360 -0.123970
							CHANNELS 3 Zrotation Yrotation Xrotation
							End Site
							{
								OFFSET 0.000000 0.000000 0.000000
							}
						}
					}
				}
				JOINT LeftShoulder
				{
					OFFSET 0.000000 0.000000 0.000000
					CHANNELS 3 Zrotation Yrotation Xrotation
					JOINT LeftArm
					{
						OFFSET 3.362410 1.200890 -0.311210
						CHANNELS 3 Zrotation Yrotation Xrotation
						JOINT LeftForeArm
						{
							OFFSET 4.983000 -0.000000 -0.000000
							CHANNELS 3 Zrotation Yrotation Xrotation
							JOINT LeftHand
							{
								OFFSET 3.483560 -0.000000 -0.000000
								CHANNELS 3 Zrotation Yrotation Xrotation
								JOINT LeftFingerBase
								{
									OFFSET 0.000000 0.000000 0.000000
									CHANNELS 3 Zrotation Yrotation Xrotation
									JOINT LeftHandIndex1
									{
										OFFSET 0.715260 -0.000000 -0.000000
										CHANNELS 3 Zrotation Yrotation Xrotation
										End Site
										{
											OFFSET 0.000000 0.000000 0.000000
										}
									}
								}
								JOINT LThumb
								{
									OFFSET 0.000000 0.000000 0.000000
									CHANNELS 3 Zrotation Yrotation Xrotation
									End Site
									{
										OFFSET 0.000000 0.000000 0.000000
									}
								}
							}
						}
					}
				}
				JOINT RightShoulder
				{
					OFFSET 0.000000 0.000000 0.000000
					CHANNELS 3 Zrotation Yrotation Xrotation
					JOINT RightArm
					{
						OFFSET -3.136600 1.374050 -0.404650
						CHANNELS 3 Zrotation Yrotation Xrotation
						JOINT RightForeArm
						{
							OFFSET -5.241900 -0.000000 -0.000000
							CHANNELS 3 Zrotation Yrotation Xrotation
							JOINT RightHand
							{
								OFFSET -3.444170 -0.000000 -0.000000
								CHANNELS 3 Zrotation Yrotation Xrotation
								JOINT RightFingerBase
								{
									OFFSET 0.000000 0.000000 0.000000
									CHANNELS 3 Zrotation Yrotation Xrotation
									JOINT RightHandIndex1
									{
										OFFSET -0.622530 -0.000000 -0.000000
										CHANNELS 3 Zrotation Yrotation Xrotation
										End Site
										{
											OFFSET 0.000000 0.000000 0.000000
										}
									}
								}
								JOINT RThumb
								{
									OFFSET 0.000000 0.000000 0.000000
									CHANNELS 3 Zrotation Yrotation Xrotation
									End Site
									{
										OFFSET 0.000000 0.000000 0.000000
									}
								}
							}
						}
					}
				}
			}
		}
	}
}
MOTION
Frames: 6
Frame Time: 0.008333
7.300577 18.116118 2.601023 39.969130 -88.014874 -27.925943 1.769842 -1.208737 -3.260494 -3.948002 -25.731818 -49.010015 2.053470 13.750270 35.290072 1.139282 -0.900851 15.670566 1.134100 6.763500 19.016500 -0.313043 -3.366544 1.940323 26.679054 2.742689 -17.944722 -1.088531 -6.835316 24.275841 -1.797951 8.994573 -8.430222 -0.266100 -3.318500 9.166700 1.918457 3.245488 2.847369 -0.839232 3.930778 -4.429581 -3.323826 2.054502 -2.654413 5.749756 7.608912 -8.576294 -8.072744 13.386924 37.623663 -2.296200 6.176100 10.927400 -7.183407 -11.509922 3.503991 -70.049621 30.089582 -15.352055 120.267560 -47.672703 -86.195436 0.472180 -0.848033 0.101561 32.642701 -8.004168 -4.403300 -7.125000 0.000000 0.000000 3.923400 21.697900 -2.199900 5.339248 15.173411 4.632216 81.569056 -24.794997 -46.037297 -42.164835 40.675503 -17.604294 1.191869 -0.262831 -5.808975 -17.705378 -44.221117 13.237000 7.125000 0.000000 0.000000 31.502700 -72.932200 -21.436400 
7.252517 18.107882 2.599218 46.121524 -88.139661 -34.028093 1.712103 -1.426743 -3.344592 -3.759268 -25.672294 -48.724557 1.885505 13.520423 34.590255 1.174002 -0.698682 16.398925 1.068500 6.571400 18.451800 -0.336488 -3.530502 2.022978 26.610654 2.836451 -18.060604 -1.132950 -6.969833 24.568156 -1.835685 9.269416 -8.459176 -0.567600 -4.825200 13.410500 1.875525 3.266117 2.848820 -0.896505 3.976573 -4.561973 -3.375727 2.033925 -2.818911 6.193187 7.606132 -8.081557 -8.329842 13.394951 37.532269 -2.479100 6.210000 10.854600 -7.174069 -11.534234 3.509729 -69.854386 30.288542 -14.929574 120.377656 -47.622645 -86.296306 0.490585 -0.851862 -0.082119 33.135055 -7.594032 -4.217300 -7.125000 0.000000 0.000000 4.306900 22.153900 -2.371300 5.340068 15.174859 4.637185 81.909481 -25.085846 -46.231179 -42.172384 40.669770 -17.618812 1.191229 -0.261462 -6.454850 -18.366402 -44.315103 13.731900 7.125000 0.000000 0.000000 30.876000 -73.219500 -21.173300 
7.203328 18.097390 2.598767 52.175214 -88.222048 -40.161439 1.567109 -1.628315 -3.412439 -3.559489 -25.652223 -48.164229 1.669496 13.199478 33.675424 1.230266 -0.577115 17.165505 1.136300 6.770000 19.035600 -0.375942 -3.710071 2.111792 26.588402 2.750016 -17.882699 -1.121006 -6.964584 24.501224 -1.856839 9.587064 -8.276215 -0.583600 -4.891700 13.599800 1.856724 3.202133 2.913215 -0.943614 3.916755 -4.626076 -3.453901 1.964240 -2.944734 6.386107 7.798450 -8.077528 -8.290825 13.641485 37.647843 -2.460900 6.350800 10.933300 -7.170015 -11.550903 3.509377 -69.715756 30.469158 -14.765422 120.416059 -47.593358 -86.325985 0.503232 -0.853442 -0.091159 33.559013 -7.305592 -4.093800 -7.125000 0.000000 0.000000 4.633100 22.469100 -2.518700 5.332397 15.162494 4.634821 82.226231 -25.294497 -46.297568 -42.221816 40.721580 -17.705611 1.182388 -0.255898 -7.039993 -19.656902 -45.072790 14.854200 7.125000 0.000000 0.000000 30.992200 -74.246700 -21.916400 
7.152898 18.081708 2.597639 57.250925 -88.294746 -45.345860 1.420931 -1.780081 -3.452154 -3.568888 -25.436250 -47.647191 1.514996 12.959709 33.072108 1.333624 -0.896352 17.724841 0.562200 4.802300 13.345600 -0.449747 -3.846535 2.166903 26.586327 2.778945 -17.814044 -1.186676 -7.087210 24.836563 -1.923393 10.256630 -8.140627 -0.650400 -5.158600 14.361500 1.894923 3.160920 2.831033 -0.998202 3.880664 -4.594906 -3.569250 1.913387 -2.806017 6.760197 7.912796 -7.673369 -8.528536 13.807574 37.240673 -2.599600 6.458500 10.793600 -7.160493 -11.580257 3.523448 -69.409761 30.350213 -14.684698 120.269239 -47.629962 -86.179748 0.496425 -0.842616 0.020476 33.313256 -7.295909 -4.060700 -7.125000 0.000000 0.000000 4.457100 22.480700 -2.421200 5.321478 15.156486 4.610479 82.626593 -25.171488 -46.772240 -42.235794 40.747439 -17.718911 1.177012 -0.266624 -6.904680 -19.881935 -44.930432 14.978900 7.125000 0.000000 0.000000 30.366100 -74.209100 -21.430400 
7.109689 18.140825 2.588726 63.045304 -88.322408 -51.212741 1.394453 -2.054669 -3.589422 -2.169957 -26.415214 -48.424327 1.414631 12.882192 32.174537 1.089731 2.416978 20.387885 3.141300 10.920400 32.011900 -0.569743 -4.006078 2.253474 26.587192 2.836167 -17.788872 -1.238354 -7.184146 25.100485 -1.972583 10.819521 -7.994548 -0.749900 -5.531200 15.430200 1.833241 3.057441 2.652294 -0.971169 3.761673 -4.538621 -3.515800 1.827806 -2.553145 7.017951 8.039919 -7.193715 -8.915297 14.033649 36.589156 -2.762600 6.567000 10.570500 -7.158613 -11.622105 3.534792 -69.296777 30.276661 -14.785222 120.116721 -47.666340 -86.031411 0.490565 -0.835949 -0.029711 33.174621 -7.480063 -4.163100 -7.125000 0.000000 0.000000 4.343400 22.263000 -2.380800 5.315656 15.130487 4.586102 82.699128 -24.986381 -46.991737 -42.257765 40.769112 -17.729544 1.173852 -0.274201 -6.765949 -19.939025 -44.709523 14.961500 7.125000 0.000000 0.000000 29.779800 -74.053100 -20.902800 
7.043239 18.044366 2.595721 71.432744 -88.226359 -59.606148 1.042302 -2.158755 -3.543093 -3.330871 -25.197713 -47.080997 1.258873 12.582320 32.001471 1.470341 -0.917589 19.103937 0.452500 4.315500 11.966100 -0.753787 -4.173241 2.273611 26.717397 2.424815 -17.902575 -1.311950 -7.337551 25.505254 -2.024143 10.845572 -8.478530 -0.815100 -5.761100 16.092700 1.687104 2.952606 2.526940 -0.980827 3.651792 -4.517363 -3.516353 1.741165 -2.454937 7.134171 8.194157 -7.235413 -9.031368 14.272319 36.462292 -2.779800 6.676600 10.586700 -7.157158 -11.645681 3.538883 -69.156647 30.257629 -14.732394 119.986016 -47.707086 -85.888191 0.499437 -0.834573 -0.152063 33.681888 -7.491631 -4.248000 -7.125000 0.000000 0.000000 4.706200 22.212400 -2.586300 5.307174 15.102391 4.574508 82.732963 -24.995054 -47.047120 -42.198223 40.746711 -17.712231 1.172872 -0.267256 -6.843373 -20.207111 -45.148568 15.273400 7.125000 0.000000 0.000000 30.477700 -74.492800 -21.690600 
